<?xml version="1.0" encoding="UTF-8"?>
<svg id="Layer_1" xmlns="http://www.w3.org/2000/svg" version="1.1" viewBox="0 0 120 120">
  <!-- Generator: Adobe Illustrator 29.8.2, SVG Export Plug-In . SVG Version: 2.1.1 Build 3)  -->
  <defs>
    <style>
      .st0 {
        fill: #1b756b;
        fill-rule: evenodd;
      }
    </style>
  </defs>
  <path class="st0" d="M97.38,52.23c2.89-2.71,6.89-2.01,8.28,1.82,1.02,2.81,1.47,6.16,2.4,9.03,8.73.27,11.91,11.54,4.4,16.16l2.45,9.51c.71,5.72-6.63,7.63-9.04,2.55l-8.49-1.56v18.09c0,1.85-3.53,4.67-5.44,4.55h-55.51c-2.78.06-5.88-2.93-5.88-5.66v-58.05H7.36c-.12,0-1.43-.47-1.64-.58-1.38-.69-2.11-2.01-2.25-3.52-.44-4.91.3-10.52.06-15.5.07-1.32,2.16-3.49,3.39-3.49h23.64v-12.32c0-2.73,3.09-5.72,5.88-5.67h55.51c1.91-.11,5.44,2.71,5.44,4.56v40.07ZM33.89,13.49v12.1h12.77c1.29,0,3.41,2.29,3.42,3.68-.3,4.93.46,10.45.03,15.31-.27,2.99-2.78,4.31-5.56,4.1.09,2.19.69,10.76-3.44,6.66-1.85-1.83-3.53-4.49-5.31-6.46l-1.9-.21v45.95h44.84l-1.38-2.4c-1.52.08-3.16-.27-4.26-1.4-.3-.31-.96-1.65-1.06-1.71-.31-.18-1.34.02-1.84-.05-3.94-.53-6.47-3.1-6.78-7.09h-17.42c-1.31-.16-2.18-1.04-2.33-2.34-.28-2.3-.17-7.16,0-9.56.44-6.48,4.92-12.89,11.11-14.98l-2.41-3.69c-4.97-10.93,5.95-21.96,16.99-17.21,8.16,3.51,10.2,14.19,4.07,20.58v.32c4.87,1.75,8.34,5.83,10.2,10.56,2.73-1.04,5.15-2.98,7.33-4.9.45-.39,2.76-2.41,2.89-2.66.17-.3.27-.53.22-.89V13.48c0-1.38-1.06-2.34-2.36-2.52-2.75-.39-6.22.26-9.05-.03-1.34,3.06-1.69,5.46-5.58,5.79-8.53.74-18.17-.52-26.81-.07-1.19-.19-2.21-.77-2.95-1.71-.86-1.1-1.04-2.76-1.68-3.65-.15-.21-.26-.35-.54-.35-2.98.59-10.61-1.74-11.21,2.55ZM11.85,31.63c-2,.4-2.04,2.89-.06,3.29h29.99c1.84-.24,2.13-3.04-.45-3.35l-29.48.06ZM11.85,39.18c-2,.4-2.04,2.89-.06,3.29h29.99c2.31-.73,1.7-3.3-.68-3.34l-29.25.05ZM100.42,54.05c-.8.24-.65,1.37-.54,2.01l8.98,33.65c.72,2.09,3.27,1.22,2.67-.9l-9.05-33.8c-.26-.94-1.17-1.23-2.06-.96ZM64.3,78.65c.51-1.9,2.24-2.94,3.89-3.76-.72-6.58,7.2-6.13,11.55-7.76l.53-.38c-.98-3.33-3.61-6.34-6.64-7.97-.75-.4-2.95-1.37-3.71-1.38-.45,0-1.25.56-1.84.72-1.91.5-3.88.75-5.86.53-2.99-.33-3-1.85-6.35-.53-4.12,1.63-8.88,6.94-8.88,11.54v8.99h17.32ZM80.06,70.43c-1.69.89-6.96,1.32-8.11,2.43-.23.22-.41.54-.51.84,1.23,4.38,2,9.02,3.46,13.32.61,1.8.73,2.01,2.73,1.73,1.39-.2,4.99-1.17,6.31-1.68.2-.08.44-.06.52-.32l-4.4-16.33ZM94.05,89.08h-4.33c-.29,0-2.53.54-2.55.78l2.66,4.77h4.22v-5.55ZM80.73,97.96h-46.51l-.33.33v8.21c0,.92,1.05,2.28,2.04,2.4h56.31c.6-.09,1.81-1.21,1.81-1.74v-9.21h-2c.56,1.71,1.49,2.3.77,4.21-.54,1.43-4.29,3.57-5.77,3.57-3.18,0-4.77-5.55-6.33-7.79Z"/>
</svg>