<?xml version="1.0" encoding="UTF-8"?>
<svg id="Layer_1" xmlns="http://www.w3.org/2000/svg" version="1.1" viewBox="0 0 120 120">
  <!-- Generator: Adobe Illustrator 29.8.2, SVG Export Plug-In . SVG Version: 2.1.1 Build 3)  -->
  <defs>
    <style>
      .st0 {
        fill: #1b756b;
      }

      .st1 {
        display: none;
        fill: none;
        stroke: #1b756b;
        stroke-linecap: round;
        stroke-linejoin: round;
        stroke-width: 5px;
      }
    </style>
  </defs>
  <path class="st1" d="M60,90c16.57,0,30-13.43,30-30s-13.43-30-30-30-30,13.43-30,30,13.43,30,30,30Z"/>
  <path class="st1" d="M56.67,46.67v16.67h16.67"/>
  <g>
    <path class="st0" d="M9.88,48.79c6.07,2.33,13.01.87,16.82-4.58,5.42,7.45,16.83,7.58,22.2,0,5.44,7.49,16.79,7.52,22.2,0,4.21,5.75,11.74,7.31,17.97,3.78,1.81-1.03,2.95-2.29,4.34-3.78,3.56,5.49,10.77,6.88,16.71,4.58v56.3h-22.43v-8.01h8.13c.09,0,1.38-.77,1.54-.91.95-.82,1.12-2.15,1.32-3.33-.6-11.04.81-22.94.01-33.88-.13-1.84-.56-3.48-2.4-4.24-23.76-.51-47.63-.06-71.43-.23-2.64.25-3.38,2.09-3.55,4.46-.79,10.88.62,22.69,0,33.66.16,1.24.34,2.69,1.33,3.54.16.14,1.45.91,1.54.91h8.13v8.01H9.88v-56.3Z"/>
    <path class="st0" d="M77.39,114.25v-11.56c0-.54-1.15-1.25-1.72-1.23s-1.71,1.04-1.71,1.46v11.33h-10.76l3.19-4.7c-.27-6.9-1.7-13.95-2.05-20.8-.08-1.61-.02-2.12,1.72-2.42,6.19,1.84,17.55-.02,18.43,8.82.54,5.42-.41,11.66.01,17.17.21.62-.75,1.93-1.27,1.93h-5.84Z"/>
    <path class="st0" d="M56.8,114.25h-10.76v-11.33c0-.43-1.17-1.45-1.71-1.46s-1.72.69-1.72,1.23v11.56h-5.84c-.52,0-1.48-1.31-1.27-1.93.42-5.51-.52-11.75.01-17.17.88-8.86,12.24-6.93,18.43-8.82,1.74.3,1.8.81,1.72,2.42-.36,6.86-1.78,13.9-2.05,20.8l3.19,4.7Z"/>
    <polygon class="st0" points="50.62 5.76 47.3 30.94 29.1 30.94 38.03 5.76 50.62 5.76"/>
    <polygon class="st0" points="81.97 5.76 90.9 30.94 72.7 30.94 69.38 5.76 81.97 5.76"/>
    <path class="st0" d="M34.6,5.76l-9.27,25.18H7.59l.18-.85c4.45-6.69,7.84-14.75,12.31-21.33.45-.67,1.28-1.76,1.94-2.18.22-.14,1.83-.81,1.93-.81h10.64Z"/>
    <path class="st0" d="M112.41,30.94h-17.74l-9.27-25.18h10.64c.1,0,1.72.67,1.93.81.66.42,1.48,1.51,1.94,2.18,4.47,6.58,7.87,14.65,12.31,21.33l.18.85Z"/>
    <polygon class="st0" points="50.85 30.94 53.95 5.75 66.18 5.76 69.15 30.94 50.85 30.94"/>
    <path class="st0" d="M59.27,61.22c10.57-.66,12.76,10.97,8.24,18.54-4.23,7.07-12.1,6.11-15.64-.97s-1.74-16.99,7.4-17.56Z"/>
    <path class="st0" d="M91.58,34.14v6.75c0,.13-1.27,1.92-1.48,2.18-4.26,4.95-12.07,4.76-16.13-.35-.28-.35-1.38-1.98-1.38-2.28v-6.29h19Z"/>
    <path class="st0" d="M47.41,34.14v6.29c0,.17-1.15,1.99-1.38,2.28-4.02,5.13-11.89,5.27-16.13.35-.22-.25-1.48-2.05-1.48-2.18v-6.75h19Z"/>
    <path class="st0" d="M69.38,34.14v6.75c0,.18-1.03,1.66-1.26,1.95-4.08,5.1-12.17,5.1-16.26,0-.23-.28-1.26-1.76-1.26-1.95v-6.75h18.77Z"/>
    <path class="st0" d="M25.21,34.14v6.52c0,.66-2.46,3.27-3.09,3.77-5.03,4-13.21,2.5-15.39-3.82-.1-.3-.51-1.61-.51-1.78v-4.69h19Z"/>
    <path class="st0" d="M113.79,34.14v4.69c0,.17-.4,1.48-.51,1.78-2.19,6.32-10.37,7.82-15.39,3.82-.63-.5-3.09-3.11-3.09-3.77v-6.52h19Z"/>
    <path class="st0" d="M32.31,108.3v5.95H3.93c-.06-2.03-.23-3.85,1.62-5.13.24-.16,1.55-.82,1.7-.82h25.06Z"/>
    <path class="st0" d="M116.07,114.25h-28.38v-5.95h25.06c.15,0,1.47.65,1.7.82,1.85,1.28,1.68,3.1,1.62,5.13Z"/>
    <path class="st0" d="M60.91,87.93l2.08,20.49c-.06.6-2.75,4.06-3.09,3.99-.84-1.26-2.94-2.95-2.9-4.45l2.08-20.03h1.83Z"/>
  </g>
</svg>