<?xml version="1.0" encoding="UTF-8"?>
<svg id="Layer_1" xmlns="http://www.w3.org/2000/svg" version="1.1" viewBox="0 0 120 120">
  <!-- Generator: Adobe Illustrator 29.8.2, SVG Export Plug-In . SVG Version: 2.1.1 Build 3)  -->
  <defs>
    <style>
      .st0 {
        fill: #1b756b;
      }
    </style>
  </defs>
  <path class="st0" d="M26.33,16.85l-3.31,6.76-8.71.15c-.1.06-.44.6-.44.66v50.71h91.83V24.4c0-.06-.34-.6-.44-.66l-8.71-.15-3.31-6.76h12.79c2.7,0,6.55,4.57,6.45,7.34v56.96c-.08,3.84-3.89,7.77-7.76,7.77h-28.31v12.71h12.35c1.13,0,3.51.76,4.47,1.44s2.42,2.58,2.42,3.71v6.02H23.93v-6.02c0-2.88,4.4-5.15,6.89-5.15h12.35v-12.71H14.85c-3.87,0-7.68-3.93-7.77-7.77V24.19c-.12-2.78,3.77-7.34,6.46-7.34h12.79Z"/>
  <path class="st0" d="M88.2,37.87v27.16h-26.89v-19.82c0-1.14-1.29-2.41-2.39-2.64-1.95-.41-11.94-.37-14.09-.08-1.26.17-2.75,1.4-2.75,2.72v19.82h-10.71v-27.16c4.29.84,8.24-.4,11.45-3.27,4.76,4.78,12.21,4.54,17.05,0,4.58,4.65,12.35,4.69,16.89,0,3.2,2.87,7.16,4.11,11.45,3.27Z"/>
  <path class="st0" d="M57.81,65.04h-12.24v-18.07c0-.62.87-.94,1.41-1,3.08-.31,6.7.25,9.85.02.34-.06.99.79.99.98v18.07Z"/>
  <polygon class="st0" points="45.79 7.21 41.42 24.29 26.55 24.29 34.81 8.37 35.84 7.21 45.79 7.21"/>
  <polygon class="st0" points="93.01 24.29 78.15 24.29 73.77 7.21 83.72 7.21 84.75 8.37 93.01 24.29"/>
  <polygon class="st0" points="58.03 7.21 58.03 24.29 45.13 24.29 49.61 7.21 58.03 7.21"/>
  <polygon class="st0" points="74.43 24.29 61.53 24.29 61.53 7.21 69.95 7.21 74.43 24.29"/>
  <path class="st0" d="M59.56,27.8c-1.84,9-14.77,9.01-16.62,0h16.62Z"/>
  <path class="st0" d="M76.62,27.8c-1.86,9.02-14.75,8.99-16.62,0h16.62Z"/>
  <path class="st0" d="M93.67,27.8c-1.88,9.01-14.68,9-16.62,0h16.62Z"/>
  <path class="st0" d="M42.51,27.8c-1.96,8.99-14.74,9.01-16.62,0h16.62Z"/>
</svg>