<?xml version="1.0" encoding="UTF-8"?>
<svg id="Layer_1" xmlns="http://www.w3.org/2000/svg" version="1.1" viewBox="0 0 120 120">
  <!-- Generator: Adobe Illustrator 29.8.2, SVG Export Plug-In . SVG Version: 2.1.1 Build 3)  -->
  <defs>
    <style>
      .st0 {
        fill: #1b756b;
      }
    </style>
  </defs>
  <path class="st0" d="M35.32,89.46l-12.77,12.77c-4.08-4.48-5.24-10.5-4.33-16.4-4.04.45-7.74-2.03-8.62-6.03-.01-19.26-.18-38.63-.05-57.82.04-6.13-1.65-13.94,6.23-15.57l89.28-.03c3.32.26,6.33,3.13,6.67,6.46.37,3.7-.03,7.99,0,11.71.09,18.36-.02,36.71,0,55.07-.58,3.13-3.22,5.84-6.45,6.21-1.09.12-2.44-.15-3.44.07-.25.06-2.01,1.13-2.04,1.24-.11.44,1.56,1.16,1.99,1.53,1.23,1.07,1.65,2.49,1.54,4.11-.1,1.51-3.06,6.41-4.04,7.91-2.29,3.55-4.84,3.75-8.39,1.57.38,2.45-.63,5.54-3.28,6.22-1.46.37-8,.28-9.74.12-3.33-.3-4.61-3.31-4.33-6.34-2.75,2.03-5.83,2.03-7.93-.86-.79-1.09-4.34-7.38-4.47-8.42-.32-2.54,1.4-4.7,3.73-5.49l-.15-.48c-.48.07-1.74-1.16-1.85-1.16h-7.85l.47,2.81h-17.58v-17.58c7.2.7,13.25,5.01,16.17,11.6l7.04.12c-.19-1.28.29-2.19.81-3.29.8-1.65,3.87-7.08,5.2-7.93s2.82-.95,4.36-.45c.83.26,1.47.9,2.28,1.12-.37-2.56.39-5.61,3.27-6.22,1.47-.31,8.65-.33,10.19-.09,2.82.44,4.11,3.76,3.65,6.31,2.06-1.56,5.28-2.13,7.26-.12.79.8,4.24,6.74,4.73,7.93.4.97.34,1.7.65,2.64,2.04.38,5.17-1.64,5.17-3.77V24.65H12.59v54.26c0,.8,1.11,2.4,1.8,2.89.92.65,3.54,1.26,4.6.93.38-.12,2.36-3.73,2.98-4.52,3.29-4.16,8.09-6.56,13.35-7.15v18.4ZM17.8,16.39c.38.38,5.4.43,6.15.29,1.29-.25,1.28-2.08,0-2.33-.7-.14-4.9-.13-5.61,0-.97.18-1.08,1.5-.54,2.05ZM30.56,14.39c-.73.21-.89,1.46-.4,1.95.45.45,5.38.49,6.21.34,1.32-.25,1.38-2.13.24-2.34-.64-.12-5.52-.11-6.05.05ZM81.44,77.46c-12.9,1.12-11.12,20.57,1.57,19.61s11.34-20.73-1.57-19.61Z"/>
  <path class="st0" d="M37.31,90.98h17.81c.49.38.16,1.53.05,2.16-2.36,14.24-20.12,20.49-30.87,10.84l13-13.01Z"/>
  <path class="st0" d="M54.95,30.81c3.66-.53,6.59,1.9,7.02,5.51.79,6.65-.46,14.49.07,21.27-.02.7-.58,1.61-1.3,1.75-1.05.2-8.56.2-9.6,0-.58-.11-.84-.57-1.01-1.1l-.03-22.43c.44-2.48,2.28-4.63,4.85-5Z"/>
  <path class="st0" d="M34.44,59.04c-.32-.3-.5-1.22-.54-1.68-.29-3.21-.25-9.2,0-12.44.6-7.63,9.79-8.39,11.91-1.34l-.05,14.84c-.26.63-.5.85-1.17.94-1.92.26-6.91.17-8.93,0-.39-.03-.93-.03-1.22-.31Z"/>
  <path class="st0" d="M22.84,42.76c2.78-.44,5.84,1.25,6.64,4.03.43,1.5.46,9.53.24,11.27-.08.61-.32.96-.88,1.23-1.95-.26-8.99.6-10.28-.17-.18-.11-.46-.44-.52-.65.29-3.37-.61-8.12.05-11.33.44-2.12,2.65-4.05,4.76-4.38Z"/>
  <path class="st0" d="M69.24,56.34l33.34.07c1.2.53.94,2.92-.57,2.94h-32.37c-1.59-.02-1.76-2.62-.41-3.01Z"/>
  <path class="st0" d="M67.14,66.78c-.29.27-.84.28-1.22.3l-30.59-.13c-1.31-.94-.9-2.87.81-2.93h30.02c1.32.11,1.95,1.84.98,2.76Z"/>
  <path class="st0" d="M69.47,41.34l20.11-.06c2.26.26,2.22,3.03-.24,3.29-6.04.62-13.08-.47-19.22,0-1.93-.13-2.54-2.52-.65-3.24Z"/>
  <path class="st0" d="M83.54,49.08c5.61.36,12.27-.67,17.76-.06,2.2.25,2.85,2.16.93,3.28h-18.75c-2.14-.21-2.04-2.93.06-3.22Z"/>
  <path class="st0" d="M69.95,49.08c1.28-.23,6.34-.23,7.62,0,2.19.39,1.82,2.93.28,3.22-.94.18-7.49.16-8.38-.04-1.61-.37-1.59-2.81.47-3.18Z"/>
</svg>