<?xml version="1.0" encoding="UTF-8"?>
<svg id="Layer_1" xmlns="http://www.w3.org/2000/svg" version="1.1" viewBox="0 0 80 80">
  <!-- Generator: Adobe Illustrator 29.8.2, SVG Export Plug-In . SVG Version: 2.1.1 Build 3)  -->
  <defs>
    <style>
      .st0 {
        fill: #1b756b;
      }
    </style>
  </defs>
  <path class="st0" d="M24.45,79.13c-.42-.3-.69-.67-.94-1.12-.47-.85-2.31-6.02-2.59-6.2-1.96.09-3.92.63-5.87.75-.62.04-1.71.12-2.21-.23-1.27-.88-.28-2.29.22-3.29,1.86-3.72,4.44-7.28,6.35-11-1.79-.48-3.47-2.08-4.02-3.86-.49-1.57.16-3.36-1.34-4.46-2.1-1.54-3.69-1.28-4.5-4.52-.63-2.51.38-2.91.66-4.85.25-1.79-1.71-2.82-2.39-4.42-.81-1.92-.59-3.96.53-5.7.9-1.4,2.21-1.68,1.86-3.72-.09-.55-.52-1.19-.66-1.79-.58-2.46.51-5.17,2.69-6.49.9-.55,1.85-.62,2.5-1.62.59-.9.29-1.69.41-2.65.28-2.29,2.02-4.45,4.26-5.07,1.61-.45,3.21.25,4.35-1.31,1.3-1.78,1.03-3.11,3.6-4.19,2.33-.98,3.15-.32,5.28.22,2.36.59,2.83-1.31,4.7-2.16,1.76-.8,3.59-.8,5.3.1,1.6.85,2.25,2.55,4.34,2.21.41-.07.77-.38,1.19-.49,2.45-.66,4.84-.12,6.47,1.88,1.19,1.46.99,3.31,3.31,3.57,2.48.28,4.06.25,5.7,2.56,1.14,1.61.76,2.64,1.04,4.31.32,1.92,1.8,1.93,3.07,2.74,1.71,1.08,2.8,3.23,2.7,5.25-.07,1.46-1.1,2.71-.75,4.1.27,1.07,1.52,1.9,2.09,2.95,1.25,2.3.88,4.72-.67,6.76-.96,1.27-1.84,1.41-1.4,3.41.47,2.13,1.19,2.68.29,5.11-.96,2.59-2.36,2.49-4.21,3.74-1.56,1.06-.97,2.47-1.24,3.95-.35,1.95-2.27,4.01-4.21,4.43,1.89,3.49,4.21,6.88,6.04,10.39,1.19,2.29,2.32,4.35-1.53,4.13-.82-.05-5.76-.9-6.02-.74-.93,1.94-1.56,4.34-2.59,6.19-.25.45-.52.82-.94,1.12h-1.38l-9.01-15.22c-.47-.31-1.15.79-1.54,1.07-2.16,1.54-4.94,1.44-7.07-.09-.52-.37-.85-.96-1.48-1.2-.02.26-.15.49-.28.72-2.35,4.12-4.84,9-7.45,12.87-.47.7-.87,1.35-1.59,1.85h-1.07ZM66.43,45.61c1.79-1.66-.24-3.96-.1-6.13.16-2.37,1.35-2.86,2.42-4.46,1.64-2.47-.77-3.43-1.68-5.14-.48-.9-.8-2.22-.73-3.23.12-1.89,1.99-3.78-.08-5.43-1.33-1.06-2.53-.83-3.75-2.67s-.79-2.53-1.1-4.4c-.46-2.76-3.37-1.9-5.24-2.55-1.14-.4-2.32-1.39-2.95-2.4s-.78-2.37-2.08-2.81c-1.65-.56-2.41.43-3.84.6-2.88.34-3.54-.61-5.51-2.1-2.78-2.11-3.97.97-6.28,1.78-2.61.92-3.08-.09-5.17-.41-2.99-.46-2.82,1.85-4.13,3.49-1.6,2.01-2.91,1.91-5.18,2.15-1.56.17-2.51,1.11-2.67,2.67-.24,2.22-.17,3.51-2.07,5.11-1.13.96-2.87,1.08-3.47,2.5-.71,1.69.42,2.46.6,4.05.25,2.19-.42,3.33-1.64,5-.58.78-1.2.89-1.23,2.14-.04,1.66,1.28,2.23,2.02,3.49.87,1.48,1.09,2.89.69,4.57-.31,1.28-1.08,1.86-.49,3.33.53,1.34,1.98,1.41,3.03,2.17,1.23.89,2.35,2.51,2.53,4.04.16,1.3-.24,2.05.78,3.2s2.03.7,3.37.91c1.47.23,2.9,1.14,3.81,2.3.77,1,.99,2.58,2.19,3.16,1.47.72,2.19-.11,3.47-.42,1.66-.4,3.29-.14,4.73.78,1.11.7,1.63,1.87,3.15,1.91,1.67.04,2.18-1.25,3.39-1.97s2.79-.95,4.23-.77c1.78.22,3.32,1.83,4.9-.49.96-1.41.86-2.36,2.57-3.54s2.69-.78,4.43-1.07c2.6-.43,1.81-3.57,2.48-5.31.37-.96,1.18-1.97,2.01-2.57.75-.55,1.99-.89,2.6-1.45ZM31.02,64h-2.52c-.67,0-2.38-1.04-2.91-1.52-1.31-1.21-1.33-2.88-2.75-3.82l-5.88,10.01c-.13.33.34.24.54.23,1.39-.03,3.95-.92,5.17-.29,1.09.56,2,4.01,2.54,5.18l5.81-9.78ZM51.27,64c-.77.1-1.73-.08-2.52,0l5.81,9.78c.51-1.16,1.47-4.63,2.54-5.18,1.18-.6,3.81.26,5.17.29.2,0,.67.1.54-.23l-5.88-10.01c-1.42.92-1.47,2.62-2.75,3.82-.63.59-2.07,1.41-2.91,1.52Z"/>
  <path class="st0" d="M38.18,10.71c18.61-1.37,30.96,19.05,21.03,34.94-9.11,14.59-30.83,14.05-39.21-.95-8.15-14.58,1.6-32.77,18.18-33.99ZM38.94,13.91c-15.85.86-24.24,19.16-14.4,31.73,8.88,11.33,26.93,9.23,33.03-3.77s-3.92-28.75-18.63-27.96Z"/>
  <path class="st0" d="M44.96,27.14l8.45,1.26c.88.17,1.31,1.2,1.12,2.02-.26,1.16-5.44,5.17-6.35,6.47.21,2.52,1.18,5.3,1.34,7.78.1,1.58-.39,2.49-2.14,2.14l-7.54-3.87-6.98,3.71c-1.82.79-2.7-.1-2.59-1.98.13-2.48,1.09-5.26,1.35-7.77l-6-5.92c-1.12-2.13.3-2.5,2.02-2.85,2.33-.47,4.83-.6,7.19-.99l3.57-7.36c1.11-1.53,2.14-1.26,3.1.22,1.35,2.1,2.32,4.91,3.48,7.15ZM40.04,24.26c-.36-.08-.24.05-.34.2-.75,1.16-1.89,4.76-2.83,5.46s-5.11.74-6.46,1.07c.66,1.16,4.2,3.72,4.52,4.73.34,1.07-1.09,6.15-.85,6.43,1.65-.6,3.11-1.7,4.71-2.4,1-.44,1.2-.47,2.23-.03,1.53.66,3.07,1.86,4.68,2.43.24-.27-1.18-5.39-.85-6.43s3.85-3.55,4.52-4.73c-1.35-.33-5.51-.35-6.46-1.07s-2.17-4.47-2.87-5.66Z"/>
</svg>