<?xml version="1.0" encoding="UTF-8"?>
<svg id="Layer_1" xmlns="http://www.w3.org/2000/svg" xmlns:xlink="http://www.w3.org/1999/xlink" version="1.1" viewBox="0 0 80 80">
  <!-- Generator: Adobe Illustrator 30.0.0, SVG Export Plug-In . SVG Version: 2.1.1 Build 123)  -->
  <defs>
    <style>
      .st0 {
        fill: none;
      }

      .st1 {
        fill: #0c436a;
      }

      .st2 {
        clip-path: url(#clippath);
      }
    </style>
    <clipPath id="clippath">
      <rect class="st0" width="80" height="80"/>
    </clipPath>
  </defs>
  <g class="st2">
    <g>
      <path class="st1" d="M46.67,26.67H15.56c-.59,0-1.15-.23-1.57-.65-.42-.42-.65-.98-.65-1.57v-8.89c0-.59.23-1.15.65-1.57.42-.42.98-.65,1.57-.65h31.11c.59,0,1.15.23,1.57.65.42.42.65.98.65,1.57v8.89c0,.59-.23,1.15-.65,1.57s-.98.65-1.57.65ZM17.78,22.22h26.67v-4.58h-26.67v4.58Z"/>
      <path class="st1" d="M46.67,31.29H15.56c-.59,0-1.15.23-1.57.65-.42.42-.65.98-.65,1.57v8.71c0,.59.23,1.15.65,1.57.42.42.98.65,1.57.65h25.24l8.09-8.22v-2.71c0-.59-.23-1.15-.65-1.57-.42-.42-.98-.65-1.57-.65ZM44.44,40h-26.67v-4.44h26.67v4.44Z"/>
      <path class="st1" d="M24.58,70.02v-.13l.71-3.09H8.89V8.89h44.44v22.78l4.44-4.2V6.67c0-.59-.23-1.15-.65-1.57-.42-.42-.98-.65-1.57-.65H6.67c-.59,0-1.15.23-1.57.65-.42.42-.65.98-.65,1.57v62.22c0,.59.23,1.15.65,1.57.42.42.98.65,1.57.65h17.78c.02-.37.06-.73.13-1.09Z"/>
      <path class="st1" d="M48.89,42.6l-1.73,1.76c.43-.09.82-.3,1.13-.62.31-.31.52-.71.6-1.14Z"/>
      <path class="st1" d="M13.33,59.87c0,.59.23,1.15.65,1.57.42.42.98.65,1.57.65h10.76l.67-2.89.29-1.22v-.11h-9.49v-4.53h14.09l4.44-4.44H15.56c-.59,0-1.15.23-1.57.65-.42.42-.65.98-.65,1.57v8.76Z"/>
      <path class="st1" d="M74.42,37.04l-7.49-7.49c-.33-.33-.73-.6-1.16-.78-.43-.18-.9-.27-1.37-.27s-.94.09-1.37.27c-.43.18-.83.44-1.16.78l-30.47,30.64-2.51,10.69c-.09.46-.1.94,0,1.4.09.46.27.9.53,1.29.26.39.59.73.99.99.39.26.83.45,1.29.54.23.02.46.02.69,0,.27.04.55.04.82,0l10.78-2.38,30.44-30.51c.33-.33.6-.72.78-1.16.18-.43.27-.9.27-1.37s-.09-.93-.27-1.37-.44-.83-.78-1.16v-.13ZM41.71,68.69l-8.13,1.8,1.98-8.07,22.84-23.09,6.27,6.27-22.96,23.09ZM67.18,43.09l-6.27-6.27,3.53-3.49,6.31,6.31-3.58,3.44Z"/>
    </g>
  </g>
</svg>