<?xml version="1.0" encoding="UTF-8"?>
<svg id="Layer_1" xmlns="http://www.w3.org/2000/svg" version="1.1" viewBox="0 0 80 80">
  <!-- Generator: Adobe Illustrator 29.8.2, SVG Export Plug-In . SVG Version: 2.1.1 Build 3)  -->
  <defs>
    <style>
      .st0 {
        fill: #1b756b;
      }
    </style>
  </defs>
  <path class="st0" d="M39.22,1.28c.82-.14,1.54-.06,2.3.28,2.48,1.12,5.88,3.74,8.45,5.21,4.77,2.73,9.99,5.46,15.15,7.37,1.33.49,3.5.88,4.61,1.43.72.36,1.55,1.4,1.48,2.25v31.59c-4.85,11.58-16.62,23.72-28.27,28.67-2.08.88-2.57,1.16-4.79.3-11.87-4.62-24.14-17.54-29.03-29.14v-31.23c.01-1.09.73-2.09,1.71-2.55,1.66-.76,4.21-1.3,6.09-2.06,7.83-3.16,15.06-7.82,22.31-12.1ZM14.82,20.24l-.03,28.09c.14,1.14,2.94,5.2,3.76,6.35,5.48,7.72,13.15,14.6,21.86,18.39,10.87-4.97,19.62-13.92,25.38-24.29v-28.57c-9.05-3.01-17.24-7.93-25.38-12.76-.55-.04-3.22,1.86-3.92,2.27-6.93,4.06-14.02,7.96-21.67,10.52Z"/>
  <path class="st0" d="M50.93,31.08c2.47-.46,4.32,2.08,3,4.24l-14.39,14.52c-1.24,1.16-2.56,1.19-3.9.17-1.89-1.44-6.89-6.52-8.43-8.42-.99-1.22-1.35-2.49-.27-3.82,1.19-1.46,2.77-1.37,4.17-.26,2.22,1.75,4.12,4.62,6.45,6.29l12-11.96c.4-.32.86-.66,1.37-.75Z"/>
</svg>