<?xml version="1.0" encoding="UTF-8"?>
<svg id="Layer_1" xmlns="http://www.w3.org/2000/svg" xmlns:xlink="http://www.w3.org/1999/xlink" version="1.1" viewBox="0 0 80 80">
  <!-- Generator: Adobe Illustrator 30.0.0, SVG Export Plug-In . SVG Version: 2.1.1 Build 123)  -->
  <defs>
    <style>
      .st0 {
        fill: url(#linear-gradient2);
      }

      .st1 {
        fill: url(#linear-gradient1);
      }

      .st2 {
        fill: url(#linear-gradient3);
      }

      .st3 {
        fill: url(#linear-gradient6);
      }

      .st4 {
        fill: url(#linear-gradient5);
      }

      .st5 {
        fill: url(#linear-gradient4);
      }

      .st6 {
        fill: url(#linear-gradient);
      }
    </style>
    <linearGradient id="linear-gradient" x1="38.04" y1="8.01" x2="24.19" y2="31.99" gradientUnits="userSpaceOnUse">
      <stop offset="0" stop-color="#1b756b"/>
      <stop offset="1" stop-color="#000"/>
    </linearGradient>
    <linearGradient id="linear-gradient1" x1="36.57" y1="25.12" x2="22.8" y2="48.97" xlink:href="#linear-gradient"/>
    <linearGradient id="linear-gradient2" x1="42.71" y1="-3.32" x2="1.32" y2="68.37" xlink:href="#linear-gradient"/>
    <linearGradient id="linear-gradient3" x1="48.67" y1="42.47" x2="47.48" y2="44.54" xlink:href="#linear-gradient"/>
    <linearGradient id="linear-gradient4" x1="28.05" y1="44.12" x2="16.99" y2="63.26" xlink:href="#linear-gradient"/>
    <linearGradient id="linear-gradient5" x1="65.91" y1="28.82" x2="37.22" y2="78.52" xlink:href="#linear-gradient"/>
    <linearGradient id="linear-gradient6" x1="-96.47" y1="-77.03" x2="-238.53" y2="169.03" gradientUnits="userSpaceOnUse">
      <stop offset="0" stop-color="#1b756b"/>
      <stop offset="1" stop-color="#005561"/>
    </linearGradient>
  </defs>
  <g id="Layer_8">
    <path class="st6" d="M46.67,26.67H15.56c-.59,0-1.15-.23-1.57-.65-.42-.42-.65-.98-.65-1.57v-8.89c0-.59.23-1.15.65-1.57.42-.42.98-.65,1.57-.65h31.11c.59,0,1.15.23,1.57.65.42.42.65.98.65,1.57v8.89c0,.59-.23,1.15-.65,1.57s-.98.65-1.57.65ZM17.78,22.22h26.67v-4.58h-26.67v4.58Z"/>
  </g>
  <g id="Layer_7">
    <path class="st1" d="M46.67,31.29H15.56c-.59,0-1.15.23-1.57.65-.42.42-.65.98-.65,1.57v8.71c0,.59.23,1.15.65,1.57.42.42.98.65,1.57.65h25.24l8.09-8.22v-2.71c0-.59-.23-1.15-.65-1.57-.42-.42-.98-.65-1.57-.65ZM44.44,40h-26.67v-4.44h26.67v4.44Z"/>
  </g>
  <g id="Layer_6">
    <path class="st0" d="M24.58,70.02v-.13l.71-3.09H8.89V8.89h44.44v22.78l4.44-4.2V6.67c0-.59-.23-1.15-.65-1.57-.42-.42-.98-.65-1.57-.65H6.67c-.59,0-1.15.23-1.57.65-.42.42-.65.98-.65,1.57v62.22c0,.59.23,1.15.65,1.57.42.42.98.65,1.57.65h17.78c.02-.37.06-.73.13-1.09Z"/>
  </g>
  <g id="Layer_5">
    <path class="st2" d="M48.89,42.6l-1.73,1.76c.43-.09.82-.3,1.13-.62.31-.31.52-.71.6-1.14Z"/>
  </g>
  <g id="Layer_4">
    <path class="st5" d="M13.33,59.87c0,.59.23,1.15.65,1.57.42.42.98.65,1.57.65h10.76l.67-2.89.29-1.22v-.11h-9.49v-4.53h14.09l4.44-4.44H15.56c-.59,0-1.15.23-1.57.65-.42.42-.65.98-.65,1.57v8.76Z"/>
  </g>
  <g id="Layer_3">
    <path class="st4" d="M74.42,37.04l-7.49-7.49c-.33-.33-.73-.6-1.16-.78-.43-.18-.9-.27-1.37-.27s-.94.09-1.37.27c-.43.18-.83.44-1.16.78l-30.47,30.64-2.51,10.69c-.09.46-.1.94,0,1.4.09.46.27.9.53,1.29.26.39.59.73.99.99.39.26.83.45,1.29.54.23.02.46.02.69,0,.27.04.55.04.82,0l10.78-2.38,30.44-30.51c.33-.33.6-.72.78-1.16.18-.43.27-.9.27-1.37s-.09-.93-.27-1.37-.44-.83-.78-1.16v-.13ZM41.71,68.69l-8.13,1.8,1.98-8.07,22.84-23.09,6.27,6.27-22.96,23.09ZM67.18,43.09l-6.27-6.27,3.53-3.49,6.31,6.31-3.58,3.44Z"/>
  </g>
  <rect class="st3" x="-271.5" y="-58" width="208" height="208"/>
</svg>