<?xml version="1.0" encoding="UTF-8"?>
<svg id="Layer_1" xmlns="http://www.w3.org/2000/svg" xmlns:xlink="http://www.w3.org/1999/xlink" version="1.1" viewBox="0 0 80 80">
  <!-- Generator: Adobe Illustrator 30.0.0, SVG Export Plug-In . SVG Version: 2.1.1 Build 123)  -->
  <defs>
    <style>
      .st0 {
        fill: url(#linear-gradient2);
      }

      .st1 {
        fill: url(#linear-gradient1);
      }

      .st2 {
        fill: url(#linear-gradient);
      }
    </style>
    <linearGradient id="linear-gradient" x1="55.8" y1="11.6" x2="25.65" y2="63.82" gradientUnits="userSpaceOnUse">
      <stop offset="0" stop-color="#1b756b"/>
      <stop offset="1" stop-color="#000"/>
    </linearGradient>
    <linearGradient id="linear-gradient1" x1="49.73" y1="19.91" x2="26.14" y2="60.78" xlink:href="#linear-gradient"/>
    <linearGradient id="linear-gradient2" x1="-152.47" y1="-88.65" x2="-294.53" y2="157.42" gradientUnits="userSpaceOnUse">
      <stop offset="0" stop-color="#1b756b"/>
      <stop offset="1" stop-color="#005561"/>
    </linearGradient>
  </defs>
  <path class="st2" d="M67.22,24.93c5.74-.19,10.63,4.47,11.09,10.14.64,7.78-.42,17.2-10.11,17.98-1.12.09-2.21-.14-3.32-.08-4.62,6.8-11.73,11.63-19.92,12.98-2.12,5.68-10.47,5.93-12.31-.05-2.38-7.73,8.52-11.87,11.87-4.69,4.34-.52,8.81-2.82,12.09-5.69,13.96-12.24,9.85-35.49-7.44-42.12C28.99,5.68,9.15,25.09,16.54,45.42c.41,1.12,1.72,3.27,1.84,4.18.44,3.26-4.37,3.65-6.68,3.44-9.61-.88-10.67-10.36-9.96-18.1.51-5.59,5.4-10.2,11.07-10.01,5.94-13.69,21.17-20.89,35.62-16.65,8.33,2.44,15.36,8.69,18.78,16.65h.01Z"/>
  <path class="st1" d="M39.21,17.28c8.72-.38,16.88,5.4,19.38,13.73,4.4,14.7-8.8,28.21-23.55,24.54l-8.19,4.64c-1.68.5-2.96-.44-3.2-2.12l2.13-8.17c-11.21-12.08-3.09-31.91,13.44-32.63h0ZM31.95,34.41c-2.79.4-2.56,4.98.72,4.59,2.99-.36,2.26-5.02-.72-4.59ZM39.67,34.41c-2.82.41-2.56,5,.72,4.59,2.99-.38,2.26-5.02-.72-4.59ZM47.39,34.41c-2.82.41-2.56,5,.72,4.59,2.99-.38,2.24-5.01-.72-4.59Z"/>
  <rect class="st0" x="-327.5" y="-69.62" width="208" height="208"/>
</svg>