<?xml version="1.0" encoding="UTF-8"?>
<svg id="Layer_1" xmlns="http://www.w3.org/2000/svg" xmlns:xlink="http://www.w3.org/1999/xlink" version="1.1" viewBox="0 0 80 80">
  <!-- Generator: Adobe Illustrator 30.0.0, SVG Export Plug-In . SVG Version: 2.1.1 Build 123)  -->
  <defs>
    <style>
      .st0 {
        fill: url(#linear-gradient2);
      }

      .st1 {
        fill: url(#linear-gradient1);
      }

      .st2 {
        fill: url(#linear-gradient3);
      }

      .st3 {
        fill: url(#linear-gradient6);
      }

      .st4 {
        fill: url(#linear-gradient7);
      }

      .st5 {
        fill: url(#linear-gradient5);
      }

      .st6 {
        fill: url(#linear-gradient4);
      }

      .st7 {
        fill: url(#linear-gradient);
      }
    </style>
    <linearGradient id="linear-gradient" x1="66.44" y1="2.62" x2="25.9" y2="72.83" gradientUnits="userSpaceOnUse">
      <stop offset="0" stop-color="#1b756b"/>
      <stop offset="1" stop-color="#000"/>
    </linearGradient>
    <linearGradient id="linear-gradient1" x1="57.56" y1="55.1" x2="50.65" y2="67.07" xlink:href="#linear-gradient"/>
    <linearGradient id="linear-gradient2" x1="60" y1="40.54" x2="54.71" y2="49.69" xlink:href="#linear-gradient"/>
    <linearGradient id="linear-gradient3" x1="60" y1="45.83" x2="54.72" y2="54.98" xlink:href="#linear-gradient"/>
    <linearGradient id="linear-gradient4" x1="60.03" y1="51.18" x2="54.73" y2="60.37" xlink:href="#linear-gradient"/>
    <linearGradient id="linear-gradient5" x1="33.85" y1="35.53" x2="22.51" y2="55.17" xlink:href="#linear-gradient"/>
    <linearGradient id="linear-gradient6" x1="21.75" y1="41.72" x2="14.52" y2="54.26" xlink:href="#linear-gradient"/>
    <linearGradient id="linear-gradient7" x1="-120.47" y1="-117.87" x2="-262.53" y2="128.19" gradientUnits="userSpaceOnUse">
      <stop offset="0" stop-color="#1b756b"/>
      <stop offset="1" stop-color="#005561"/>
    </linearGradient>
  </defs>
  <path class="st7" d="M44.56,34.94v3.76l.2.2h25.54c.09,0,.78.35.93.44,1.11.62,1.64,1.65,1.74,2.9.55,7.11-.42,14.94-.02,22.12,0,1.07-1.64,2.95-2.65,2.95h-3.21v6.76c0,.49-1.15,1.02-1.6.65l-10.38-7.38-17.03-.04c-1.01-.23-1.96-.87-2.43-1.81-.06-.13-.39-.93-.39-.98v-6.22h-10.72l-9.94,7.13c-.47.53-1.87.12-1.87-.51v-6.62h-2.8c-1.36,0-3.17-1.92-3.08-3.34l.02-22.26c.03-1.07,1.81-2.95,2.79-2.95h17.42V7.69c0-.17.4-1.05.52-1.26.47-.76,1.27-1.13,2.14-1.27h40.3c1.44-.01,2.77,1.08,2.93,2.53v24.46c0,1.28-1.39,2.79-2.66,2.79,0,0-25.75,0-25.75,0ZM44.56,12.13v15.71l13.52-7.72s-13.52-7.99-13.52-7.99ZM14.92,62.39l8.98-6.25,17.6-.16.77-.73.11-21.89c0-.78-.46-1.46-1.3-1.44H10.2c-.7.03-1.07.67-1.16,1.3l.03,21.83c.44,1.96,4.32.49,5.43,1.26.1.07.41.47.41.54v5.53h.01ZM64.91,71.55v-5.53c0-.08.36-.54.47-.62,1.2-.86,4.97.61,5.37-1.19l.03-21.97c.1-.36-.64-1.16-.89-1.16h-25.34v14.27c0,1.17-1.93,2.94-3.07,2.94h-4.03v5.94c0,.25.8.99,1.16.89l17.16.06,9.14,6.36h0Z"/>
  <path class="st1" d="M42.47,59.97l23.05-.03c1.5,0,1.87,1.79.42,2.19l-23.98-.08c-.97-.68-.68-1.93.51-2.08Z"/>
  <path class="st0" d="M48.48,44.12l17.79.04c1.09.81.56,2.07-.75,2.11h-16.39c-1.27-.08-1.83-1.44-.65-2.16h0Z"/>
  <path class="st2" d="M66.51,49.6c.83.67.13,2.12-.98,2.01-5.2-.38-11.14.51-16.25,0-1.87-.19-1.77-2.03-.56-2.19h17.09c.25,0,.5.02.71.18h0Z"/>
  <path class="st6" d="M66.51,56.62c-.2.16-.46.17-.71.18h-17.09c-1.21-.16-1.32-2,.56-2.19,5.11-.51,11.05.38,16.25,0,1.11-.12,1.81,1.34.98,2.01h0Z"/>
  <path class="st5" d="M29.81,41.09h2.39c2.43,0,4.33,2.62,4.02,4.97-.14,1.08-3.63,6.22-4.5,7.25-.79.93-1.8,1.85-3.07,1.99-.96.1-5.16.14-5.95-.07-.49-.13-1.14-.73-1.22-1.24l.1-12.18,5.03-8.5c1.87-1.62,4.11-.03,4.4,2.14.22,1.68-.97,3.93-1.19,5.63h-.01ZM23.66,53.11h4.99s.72-.46.82-.55c.68-.63,4.05-5.51,4.42-6.37.54-1.24-.18-2.42-1.42-2.77-1.35-.38-3.84.24-4.67-.25-.55-.33-.48-.86-.41-1.43.21-1.7,1.43-4.24,1.47-5.78.01-.54-.24-.82-.62-1.15l-4.58,7.72v10.59h0Z"/>
  <path class="st3" d="M16.8,40.57c1.51-.22,4.21-.32,4.37,1.71-.2,3.56.39,7.66.03,11.16-.07.7-.43,1.65-1.19,1.82-.5.11-3.11.1-3.63,0-.58-.12-1-.61-1.16-1.16l-.02-12.12c.22-.87.73-1.28,1.6-1.41Z"/>
  <rect class="st4" x="-295.5" y="-98.84" width="208" height="208"/>
</svg>