<?xml version="1.0" encoding="UTF-8"?>
<svg id="Layer_1" xmlns="http://www.w3.org/2000/svg" version="1.1" viewBox="0 0 80 80">
  <!-- Generator: Adobe Illustrator 30.0.0, SVG Export Plug-In . SVG Version: 2.1.1 Build 123)  -->
  <defs>
    <style>
      .st0, .st1 {
        fill: none;
        stroke: #1b756b;
        stroke-linecap: round;
        stroke-width: 5px;
      }

      .st1 {
        stroke-linejoin: round;
      }

      .st2 {
        fill: #0c436a;
      }
    </style>
  </defs>
  <path class="st1" d="M40,124.9v23.33M40,148.23l10-10M40,148.23l-10-10"/>
  <path class="st0" d="M53.33,158.23h-26.67M73.33,141.57c0,15.71,0,23.57-4.88,28.45-4.88,4.88-12.74,4.88-28.45,4.88s-23.57,0-28.45-4.88c-4.88-4.88-4.88-12.74-4.88-28.45s0-23.57,4.88-28.45c4.89-4.88,12.74-4.88,28.45-4.88s23.57,0,28.45,4.88c3.25,3.25,4.33,7.81,4.7,15.12"/>
  <g>
    <path class="st2" d="M79.03,28.83l-4.24,10.02c-.82,1.23-1.69.86-2.76.26-2.19-1.22-4.75-3-6.86-4.42-.59-.4-2.3-1.23-1.92-2.04s3.91-1.42,4.8-1.83c-5.42-15.94-22.21-24.94-38.58-20.2C9.22,16.47.45,40.79,12.42,58.31c.71,1.04,3.01,3.48,3.16,4.46.51,3.16-2.83,4.91-5.17,2.73-3.18-2.96-6.58-9.83-7.82-13.99C-5.7,23.69,19.07-2.41,47.26,4.42c12.31,2.98,22.61,12.48,26.44,24.56.41.3,4.57-1.97,5.33-.91v.76Z"/>
    <path class="st2" d="M28.25,46.37h9.3v4.88h-18.15c.45-3.84,2.83-6.53,5.64-8.92,1.64-1.39,4.33-2.97,5.56-4.66,3.21-4.42-4.69-6.47-4.64-1.06l-6.1-.46c.47-4.08,2.52-6.35,6.63-6.86s9.44.03,10.64,4.6c1.66,6.32-5.48,8.81-8.89,12.47h.01Z"/>
    <path class="st2" d="M55.7,29.14v13.42h2.74v4.73h-2.74v3.96h-5.18v-3.96h-10.98v-5.11l11.06-13.04h5.11-.01ZM50.52,35.85l-5.79,6.71h5.79v-6.71Z"/>
    <path class="st2" d="M46.67,70.81c3.69-.45,4.84,4.44,1.64,5.76-2.03.84-5.12,1.28-5.99-1.34-.99-2.95,1.98-4.14,4.35-4.42Z"/>
    <path class="st2" d="M57.18,65.92c2.67-.45,4.57,2.46,3,4.68-.59.84-3.09,2.44-4.11,2.45-2.43.01-3.96-2.82-2.52-4.8.48-.67,2.82-2.19,3.62-2.33h.01Z"/>
    <path class="st2" d="M70.6,47.32c2.14-.36,3.72,1.11,3.55,3.25-.07.83-.68,2.74-1.16,3.41-1.37,1.91-4.47,1.53-5.22-.71-.61-1.82.65-5.58,2.82-5.95h.01Z"/>
    <path class="st2" d="M65.27,57.84c2.02-.41,4.01.96,3.86,3.09-.08,1.16-1.97,3.68-3.02,4.16-2.55,1.15-5.05-1.32-4.03-3.88.37-.94,2.16-3.16,3.19-3.37Z"/>
    <path class="st2" d="M21.97,68.06c1.26-.16,4.25,1.24,4.89,2.35.94,1.61.04,4.15-1.89,4.47-1.53.25-4.44-1.04-5.23-2.38-1.04-1.77.24-4.19,2.23-4.44Z"/>
    <path class="st2" d="M32.63,71.72c1.03-.21,3.62.03,4.52.6,1.68,1.07,1.94,3.48.41,4.78-1.36,1.16-5.18.82-6.34-.53-1.33-1.56-.64-4.43,1.41-4.85Z"/>
  </g>
</svg>